HIERARCHY
ROOT Hips
{
  OFFSET 0 0 0
  CHANNELS 6 Xposition Yposition Zposition Zrotation Yrotation Xrotation
  JOINT LeftThigh
  {
    OFFSET 8.409438 0 -5.917753
    CHANNELS 3 Zrotation Yrotation Xrotation
    JOINT LeftLeg
    {
      OFFSET 0 0 -42.358652
      CHANNELS 3 Zrotation Yrotation Xrotation
      JOINT LeftFoot
      {
        OFFSET 0 0 -39.357303
        CHANNELS 3 Zrotation Yrotation Xrotation
      }
    }
  }
  JOINT RightThigh
  {
    OFFSET -8.409438 0 -5.917753
    CHANNELS 3 Zrotation Yrotation Xrotation
    JOINT RightLeg
    {
      OFFSET 0 0 -42.358652
      CHANNELS 3 Zrotation Yrotation Xrotation
      JOINT RightFoot
      {
        OFFSET 0 0 -39.357303
        CHANNELS 3 Zrotation Yrotation Xrotation
      }
    }
  }
  JOINT SpineLow
  {
    OFFSET 0 0 4.719101
    CHANNELS 3 Zrotation Yrotation Xrotation
    JOINT SpineMid
    {
      OFFSET 0 0 12.899191
      CHANNELS 3 Zrotation Yrotation Xrotation
      JOINT Chest
      {
        OFFSET 0 0 12.899191
        CHANNELS 3 Zrotation Yrotation Xrotation
        JOINT LeftShoulder
        {
          OFFSET 7.550562 1.41573 9.438202
          CHANNELS 3 Zrotation Yrotation Xrotation
          JOINT LeftArm
          {
            OFFSET 9.155056 0 4.247191
            CHANNELS 3 Zrotation Yrotation Xrotation
            JOINT LeftForearm
            {
              OFFSET 0 0 25.771955
              CHANNELS 3 Zrotation Yrotation Xrotation
              JOINT LeftHand
              {
                OFFSET 0 0 25.197169
                CHANNELS 3 Zrotation Yrotation Xrotation
              }
            }
          }
        }
        JOINT RightShoulder
        {
          OFFSET -7.550562 1.41573 9.438202
          CHANNELS 3 Zrotation Yrotation Xrotation
          JOINT RightArm
          {
            OFFSET -9.155056 0 4.247191
            CHANNELS 3 Zrotation Yrotation Xrotation
            JOINT RightForearm
            {
              OFFSET 0 0 -25.771955
              CHANNELS 3 Zrotation Yrotation Xrotation
              JOINT RightHand
              {
                OFFSET 0 0 -25.197169
                CHANNELS 3 Zrotation Yrotation Xrotation
              }
            }
          }
        }
        JOINT Neck
        {
          OFFSET 0 0 15.101124
          CHANNELS 3 Zrotation Yrotation Xrotation
          JOINT Head
          {
            OFFSET 0 0 11.325843
            CHANNELS 3 Zrotation Yrotation Xrotation
            End Site
            {
              OFFSET 0 0 14.157303
            }
          }
        }
      }
    }
  }
}
MOTION
Frames: 17
Frame Time: 0.0
0.0  101.685394  0.0  0.645474  18.202589  -99.367526  6.299192  -19.900787  6.039671  -10.142375  12.035713  17.584548  0.161947  3.192843  2.81586  -17.625238  14.461421  2.882001  -4.296946  3.751995  14.806265  2.256088  1.770053  -1.453075  2.77811  -0.232858  2.493121  7.560855  -0.920672  6.778025  7.560854  -0.920671  6.778025  -15.187592  20.110467  7.826533  142.236396  24.66488  171.736052  -24.780953  29.276782  93.919708  35.975293  -41.080889  -4.5105  29.009362  -8.659859  9.337492  133.975151  42.550196  39.689876  -32.57543  -17.964802  -102.348198  53.415525  -4.752379  1.586274  -8.959793  -2.736224  2.727924  -6.706507  -2.092737  2.005919  
0.0  101.685394  0.0  0.648858  18.450024  -99.290028  6.323654  -19.844834  6.189465  -10.28005  11.838668  17.252227  0.101709  3.183997  2.805815  -18.108649  14.572584  2.836831  -4.36812  3.708735  14.552189  2.414032  1.749646  -1.439519  2.806412  -0.111418  2.479243  7.650543  -0.590921  6.753512  7.650543  -0.590921  6.753512  -15.456913  19.498889  7.722597  141.44166  25.072263  171.991848  -25.59866  29.482472  93.648148  36.328765  -41.148666  -4.90787  29.538299  -8.988664  8.627878  132.616605  42.148263  38.996674  -32.378654  -18.087378  -102.254318  53.522091  -4.551644  1.570769  -9.307736  -3.253816  2.861706  -6.96386  -2.484681  2.096672  
0.0  101.685394  0.0  0.650361  18.602961  -99.254322  6.277399  -19.76392  6.268072  -10.336645  11.688268  17.021281  0.124075  3.161101  2.826681  -18.242293  14.621476  2.939753  -4.473953  3.689402  14.30439  2.444222  1.717257  -1.440962  2.864314  -0.04252  2.474377  7.815632  -0.408443  6.747601  7.815632  -0.408443  6.747601  -15.954128  19.225908  7.683961  141.539547  25.364436  172.433771  -25.619488  29.46907  93.748398  36.670956  -41.151772  -5.189808  29.629211  -8.997006  8.010377  131.521201  41.642654  38.326562  -32.290431  -18.000803  -102.091372  53.721598  -4.463214  1.693974  -9.799626  -3.539435  2.926937  -7.330615  -2.70239  2.138332  
0.0  101.685394  0.0  0.635934  18.868831  -99.161479  6.279328  -19.732643  6.310756  -10.539643  11.574051  16.72508  0.188533  3.127728  2.84562  -18.642308  14.709322  2.883427  -4.652758  3.653348  14.083773  2.627896  1.697154  -1.416342  2.862403  0.035226  2.453591  7.818423  -0.193878  6.700027  7.818423  -0.193878  6.700027  -16.373067  18.90476  7.736152  141.629255  25.723105  172.963233  -25.604031  29.514385  93.881165  37.048026  -41.392702  -5.474674  30.682317  -9.284191  7.756568  130.124986  41.364547  38.306242  -32.32193  -17.651601  -101.80428  53.942605  -4.52115  1.898781  -10.119902  -3.80334  3.007207  -7.568623  -2.903308  2.19222  
0.0  101.685394  0.0  0.620049  19.010742  -99.125712  6.327692  -19.723529  6.367886  -10.663156  11.463856  16.495712  0.198787  3.109312  2.838891  -18.712938  14.7076  2.962973  -4.776235  3.646258  13.900294  2.640822  1.675019  -1.415919  2.884076  0.093347  2.441531  7.883514  -0.036212  6.673895  7.883513  -0.036212  6.673895  -16.871871  18.708801  7.910015  142.016623  26.11024  173.61093  -25.565365  29.622091  94.048419  37.216467  -41.47242  -5.394553  30.701393  -9.255198  7.2548  129.486454  40.82292  37.859756  -32.420195  -17.232743  -101.401608  54.129443  -4.674365  2.245422  -10.44094  -3.981056  3.065983  -7.807792  -3.03929  2.231214  
0.0  101.685394  0.0  0.618096  19.323502  -98.997593  6.268312  -19.681667  6.320904  -10.750257  11.363833  16.296141  0.139455  3.0779  2.815159  -19.077362  14.785436  2.862356  -5.049286  3.625763  13.739196  2.822487  1.653561  -1.389023  2.85416  0.178463  2.412565  7.810452  0.202237  6.605013  7.810452  0.202237  6.605013  -17.501538  18.327872  8.087006  141.744943  26.677022  174.286541  -26.294982  29.933691  93.852209  37.395142  -41.759622  -5.325409  31.495788  -9.546427  7.009612  128.627412  40.437782  37.996389  -32.448016  -16.970621  -101.021101  54.322763  -4.706165  2.732605  -10.788597  -4.180211  3.112184  -8.066792  -3.191347  2.260016  
0.0  101.685394  0.0  0.59234  19.378625  -98.983964  6.429255  -19.723131  6.394608  -10.827411  11.251323  16.062412  0.099081  3.063428  2.824666  -19.070691  14.752851  2.912791  -5.17292  3.632125  13.648686  2.835726  1.63105  -1.389202  2.873059  0.23927  2.398094  7.868136  0.367817  6.572782  7.868136  0.367817  6.572782  -17.978467  18.059791  8.422388  142.137153  27.065667  175.176639  -26.335076  30.047902  93.947175  37.411495  -41.817178  -4.965425  31.410433  -9.590115  6.587823  128.421695  39.898434  37.881536  -32.432061  -16.913433  -100.810329  54.313148  -4.658345  3.306307  -11.049472  -4.340827  3.169849  -8.260856  -3.314289  2.298512  
0.0  101.685394  0.0  0.616216  19.578773  -98.888275  6.368914  -19.661754  6.363919  -10.844989  11.152133  15.856527  0.147812  3.04586  2.890666  -19.301641  14.837539  2.80525  -5.565819  3.646373  13.56049  3.074071  1.601065  -1.345914  2.846446  0.324706  2.371557  7.803908  0.606491  6.510452  7.803908  0.606491  6.510452  -18.556214  17.643412  8.685046  142.537601  27.395344  176.148776  -25.024717  30.101611  94.614217  38.235938  -42.92372  -5.622609  31.496442  -9.764211  6.220652  128.45443  39.287141  37.922938  -32.531187  -17.039134  -100.589446  54.29021  -4.359704  3.708263  -11.400319  -4.492126  3.209836  -8.522508  -3.430463  2.323139  
0.0  101.685394  0.0  0.604555  19.457103  -98.920852  6.638213  -19.744065  6.511426  -10.866124  11.069178  15.616581  0.12136  3.023294  2.914416  -19.207947  14.799672  2.811133  -5.649992  3.659565  13.588194  3.118055  1.592386  -1.327409  2.853303  0.376924  2.368712  7.827834  0.748493  6.508976  7.827834  0.748494  6.508976  -18.856734  17.384194  9.007438  142.84716  27.789354  177.220244  -25.124503  30.067511  94.581482  38.318895  -42.929005  -5.264109  31.503928  -9.792138  5.876615  128.537309  38.746494  38.017508  -32.46184  -17.407853  -100.682934  54.310841  -4.08508  3.885206  -11.538538  -4.589624  3.243335  -8.625167  -3.505013  2.345359  
0.0  101.685394  0.0  0.680833  19.642783  -98.777742  6.41055  -19.60267  6.424689  -10.889023  10.975902  15.358735  0.318127  3.051831  3.068291  -19.612927  14.930888  2.511361  -6.014208  3.656151  13.632917  3.470072  1.60938  -1.247808  2.789797  0.460532  2.364632  7.662792  0.983159  6.507137  7.662792  0.98316  6.507137  -19.135075  17.019968  9.186958  141.899695  28.484009  178.140138  -25.058974  30.142627  94.612965  39.270947  -43.943145  -5.955871  31.737617  -9.85444  5.485419  128.63254  38.252185  38.131189  -32.484134  -17.688074  -100.76  54.411821  -3.8974  3.661972  -11.724315  -4.700158  3.19875  -8.763946  -3.588125  2.308359  
0.0  101.685394  0.0  0.696338  19.330593  -98.831019  6.710228  -19.731324  6.589854  -10.819486  10.959813  15.17143  0.333292  3.037299  3.111686  -19.455859  14.914963  2.426471  -5.991813  3.648256  13.813836  3.563557  1.630028  -1.213441  2.768271  0.505044  2.386439  7.608801  1.104116  6.571612  7.608801  1.104116  6.571612  -19.307016  16.867682  9.279221  142.144855  28.964786  179.16544  -25.235953  30.042387  94.506932  39.376422  -43.889334  -5.643784  31.874491  -9.731738  5.180965  128.790068  37.868886  38.182475  -32.417968  -17.816656  -100.922048  54.603056  -3.878443  3.044911  -11.66712  -4.738712  3.161376  -8.721072  -3.616023  2.28  
0.0  101.685394  0.0  0.751811  19.177382  -98.760211  6.538534  -19.710479  6.477668  -10.610542  10.971081  15.099314  0.462815  3.04563  3.232719  -19.752487  15.014033  2.03789  -5.902283  3.605961  14.114419  3.652949  1.641856  -1.185443  2.690875  0.571863  2.389461  7.404348  1.293668  6.586433  7.404348  1.293668  6.586433  -19.271956  16.650044  9.395225  140.916247  29.77349  179.974852  -25.361562  30.14663  94.412432  40.333641  -44.768413  -6.322235  32.295778  -9.76725  4.96533  128.862487  37.609628  38.34113  -32.463746  -17.573433  -101.019209  54.897678  -4.072458  2.080705  -11.563298  -4.793321  3.144879  -8.642974  -3.656118  2.267348  
0.0  101.685394  0.0  0.760202  18.654536  -98.837482  6.874226  -19.915909  6.641262  -10.474305  11.043618  14.984113  0.515558  3.035854  3.295687  -19.376984  14.941026  1.906284  -5.852962  3.687044  14.518971  3.797586  1.603452  -1.187134  2.640801  0.599104  2.403523  7.270662  1.371399  6.627057  7.270662  1.371399  6.627057  -19.203572  16.736071  9.460292  140.997278  30.364818  -179.138915  -25.616751  30.063768  94.231365  40.402085  -44.677194  -6.051754  32.560206  -9.674144  4.89134  129.019707  37.433661  38.483962  -32.570289  -17.04104  -101.14435  55.559244  -4.342262  0.979003  -11.307135  -4.74892  3.161614  -8.451152  -3.621728  2.282722  
0.0  101.685394  0.0  0.765142  18.25309  -98.826615  6.482707  -19.932503  6.377762  -9.911278  11.118147  15.239543  0.769539  3.078263  3.478658  -19.198294  14.856138  1.603901  -5.781414  3.812976  15.081314  3.845497  1.515704  -1.257082  2.545893  0.638398  2.415114  7.015797  1.486865  6.661282  7.015798  1.486865  6.661282  -18.997495  16.787079  9.320511  140.750108  30.906788  -178.492339  -25.768546  29.995385  94.128097  40.654975  -44.599618  -6.077152  33.190857  -9.697862  4.892802  129.048295  37.390234  38.86957  -32.89142  -16.084068  -101.242882  56.449713  -4.586905  0.068028  -11.018278  -4.727941  3.151319  -8.234855  -3.604234  2.2776  
0.0  101.685394  0.0  0.759936  17.680265  -98.914208  6.692926  -20.160976  6.476241  -9.642014  11.249026  15.318349  0.794505  3.087778  3.519488  -18.60411  14.650392  1.434469  -5.768484  4.057003  15.755868  3.900401  1.434558  -1.321735  2.450386  0.643478  2.42772  6.755789  1.509096  6.694352  6.755789  1.509096  6.694352  -18.89117  17.187529  9.114438  140.609572  31.477997  -178.034025  -26.171852  29.812454  93.946759  40.919931  -44.287986  -6.212207  33.434599  -9.555087  5.142787  129.397197  37.397698  39.220887  -33.4641  -14.820327  -101.303141  56.916814  -4.9007  -0.026701  -10.604563  -4.603513  3.197759  -7.925272  -3.509452  2.317812  
0.0  101.685394  0.0  0.693256  17.224875  -98.949892  6.774265  -20.474585  6.379929  -9.535868  11.455558  15.3777  0.901481  3.124896  3.617887  -18.20802  14.310748  1.135268  -6.992186  4.528754  16.202612  5.049359  1.513381  -1.16988  2.304906  0.640906  2.430251  6.358332  1.516643  6.698069  6.358332  1.516643  6.698069  -18.615297  17.686432  8.803373  140.316802  32.047398  -177.774317  -26.821155  29.398443  93.626403  41.20509  -43.687884  -6.579134  33.999744  -9.509283  5.581115  129.57458  37.511461  39.769163  -34.229346  -13.605035  -101.356773  57.172507  -5.392271  0.780577  -10.133443  -4.462763  3.24782  -7.572739  -3.402113  2.361263  
0.0  101.685394  0.0  0.638924  16.763853  -98.979628  6.920519  -20.771758  6.253661  -9.331809  11.731605  15.656276  0.967769  3.134349  3.643259  -17.831635  13.978405  0.795829  -6.863757  4.832602  17.031066  5.086007  1.517801  -1.189273  2.135435  0.627632  2.438767  5.894376  1.496922  6.716625  5.894376  1.496922  6.716625  -18.340379  18.193369  8.325242  140.104293  32.512351  -177.660397  -27.145865  28.961033  93.439445  41.854582  -43.016868  -7.456531  34.284025  -9.337406  6.094583  129.845475  37.67894  40.206406  -34.973602  -12.572458  -101.422736  57.572407  -5.979094  1.798954  -9.552254  -4.268675  3.294162  -7.138081  -3.254019  2.403338  
